<mxfile host="app.diagrams.net" agent="Mozilla/5.0 (Windows NT 10.0; Win64; x64) AppleWebKit/537.36 (KHTML, like Gecko) Chrome/130.0.0.0 Safari/537.36" version="24.8.4">
  <diagram name="Page-1" id="2YBvvXClWsGukQMizWep">
    <mxGraphModel dx="2045" dy="622" grid="1" gridSize="10" guides="1" tooltips="1" connect="1" arrows="1" fold="1" page="1" pageScale="1" pageWidth="850" pageHeight="1100" math="0" shadow="0">
      <root>
        <mxCell id="0" />
        <mxCell id="1" parent="0" />
        <mxCell id="QT0idfkxXLzTyoDSYEQH-2" value="" style="shape=umlLifeline;perimeter=lifelinePerimeter;whiteSpace=wrap;html=1;container=1;dropTarget=0;collapsible=0;recursiveResize=0;outlineConnect=0;portConstraint=eastwest;newEdgeStyle={&quot;curved&quot;:0,&quot;rounded&quot;:0};participant=umlActor;" parent="1" vertex="1">
          <mxGeometry x="80" y="50" width="20" height="300" as="geometry" />
        </mxCell>
        <mxCell id="QT0idfkxXLzTyoDSYEQH-3" value="&lt;u&gt;:Guardian&lt;/u&gt;" style="text;html=1;align=center;verticalAlign=middle;resizable=0;points=[];autosize=1;strokeColor=none;fillColor=none;" parent="1" vertex="1">
          <mxGeometry x="50" y="20" width="80" height="30" as="geometry" />
        </mxCell>
        <mxCell id="QT0idfkxXLzTyoDSYEQH-4" value="&lt;u&gt;:System&lt;/u&gt;" style="shape=umlLifeline;perimeter=lifelinePerimeter;whiteSpace=wrap;html=1;container=1;dropTarget=0;collapsible=0;recursiveResize=0;outlineConnect=0;portConstraint=eastwest;newEdgeStyle={&quot;curved&quot;:0,&quot;rounded&quot;:0};" parent="1" vertex="1">
          <mxGeometry x="325" y="50" width="100" height="300" as="geometry" />
        </mxCell>
        <mxCell id="QT0idfkxXLzTyoDSYEQH-15" value="makeBooking(minorId, offeringId)" style="html=1;verticalAlign=bottom;endArrow=block;edgeStyle=elbowEdgeStyle;elbow=vertical;curved=0;rounded=0;" parent="1" edge="1">
          <mxGeometry relative="1" as="geometry">
            <mxPoint x="89.99857142857144" y="230" as="sourcePoint" />
            <Array as="points">
              <mxPoint x="180.07" y="230" />
            </Array>
            <mxPoint x="374.57" y="230" as="targetPoint" />
            <mxPoint as="offset" />
          </mxGeometry>
        </mxCell>
        <mxCell id="QT0idfkxXLzTyoDSYEQH-17" value="confirmation" style="html=1;verticalAlign=bottom;endArrow=block;edgeStyle=elbowEdgeStyle;elbow=vertical;curved=0;rounded=0;dashed=1;" parent="1" edge="1">
          <mxGeometry x="0.0003" relative="1" as="geometry">
            <mxPoint x="374.57" y="260" as="sourcePoint" />
            <Array as="points">
              <mxPoint x="180.07" y="260" />
            </Array>
            <mxPoint x="89.99857142857144" y="260" as="targetPoint" />
            <mxPoint as="offset" />
          </mxGeometry>
        </mxCell>
        <mxCell id="LRU_EcB0eDfxrB6BmX2D-1" value="&lt;u&gt;Make Bookings as Guardian for a Minor Scenario&lt;/u&gt;&lt;div&gt;1. Guardian logs in to the system.&lt;/div&gt;&lt;div&gt;2. Guardian clicks on &quot;View available offerings and make bookings&quot;.&lt;/div&gt;&lt;div&gt;3. The System opens a new page with a table (OfferingsPage()), which calls&amp;nbsp;&lt;span style=&quot;background-color: initial;&quot;&gt;getOfferingsForViewing()&lt;/span&gt;&lt;/div&gt;&lt;div&gt;&lt;span style=&quot;background-color: initial;&quot;&gt;4.&amp;nbsp;&lt;/span&gt;&lt;span style=&quot;background-color: initial;&quot;&gt;Guardian clicks on an Offering from the displayed offerings.&amp;nbsp;&lt;/span&gt;&lt;/div&gt;&lt;div&gt;&lt;span style=&quot;background-color: initial;&quot;&gt;5. Guardian clicks on &quot;Reserve&quot; (SSD starts here)&lt;/span&gt;&lt;/div&gt;&lt;div&gt;&lt;span style=&quot;background-color: initial;&quot;&gt;6. The system validates the following if the Offering isn&#39;t at capacity&lt;/span&gt;&lt;/div&gt;&lt;div&gt;7. The system opens a page with all of the Guardian&#39;s minors as radio buttons&amp;nbsp;&lt;/div&gt;&lt;div&gt;8. The Guardian chooses a Minor to make a Booking for and confirms their selection.&lt;/div&gt;&lt;div&gt;9. The system validates that following t&lt;span style=&quot;background-color: initial;&quot;&gt;he Minor hasn&#39;t booked another Offering at the same time and day.&lt;/span&gt;&lt;/div&gt;&lt;div&gt;7. If all conditions pass, a new Booking is created in the Database with the offeringId and minorId.&lt;/div&gt;&lt;div&gt;&lt;span style=&quot;background-color: initial;&quot;&gt;7.&amp;nbsp;&lt;/span&gt;&lt;span style=&quot;background-color: initial;&quot;&gt;A confirmation is shown to the Guardian.&amp;nbsp;&lt;/span&gt;&lt;/div&gt;&lt;div&gt;&lt;span style=&quot;background-color: initial;&quot;&gt;&lt;br&gt;&lt;/span&gt;&lt;/div&gt;" style="shape=note;size=20;whiteSpace=wrap;html=1;align=left;" parent="1" vertex="1">
          <mxGeometry x="-510" y="70" width="570" height="190" as="geometry" />
        </mxCell>
        <mxCell id="LRU_EcB0eDfxrB6BmX2D-2" value="*validate Offering not at capacity*" style="html=1;verticalAlign=bottom;endArrow=block;edgeStyle=elbowEdgeStyle;elbow=vertical;curved=0;rounded=0;" parent="1" edge="1">
          <mxGeometry relative="1" as="geometry">
            <mxPoint x="89.99857142857144" y="110" as="sourcePoint" />
            <Array as="points">
              <mxPoint x="180.07" y="110" />
            </Array>
            <mxPoint x="374.57" y="110" as="targetPoint" />
            <mxPoint as="offset" />
          </mxGeometry>
        </mxCell>
        <mxCell id="LRU_EcB0eDfxrB6BmX2D-3" value="-Note that any &quot;validations&quot; are not a system operation, but rather just the necessary validations. These are a combination of if statements and method calls that check any necessary conditions BEFORE makeBooking is called.&amp;nbsp;&lt;div&gt;-JFrame is just a UI class with no real complexity to it, but it is worth including so the SSD can follow the Scenario.&lt;/div&gt;" style="shape=note;size=20;whiteSpace=wrap;html=1;align=left;" parent="1" vertex="1">
          <mxGeometry x="460" y="90" width="330" height="140" as="geometry" />
        </mxCell>
        <mxCell id="9b4KyhOOiz8VRCWH90JQ-1" value="*validate Offering time conflict*" style="html=1;verticalAlign=bottom;endArrow=block;edgeStyle=elbowEdgeStyle;elbow=vertical;curved=0;rounded=0;" edge="1" parent="1">
          <mxGeometry relative="1" as="geometry">
            <mxPoint x="89.99857142857144" y="199.58" as="sourcePoint" />
            <Array as="points">
              <mxPoint x="180.07" y="199.58" />
            </Array>
            <mxPoint x="374.57" y="199.58" as="targetPoint" />
            <mxPoint as="offset" />
          </mxGeometry>
        </mxCell>
        <mxCell id="9b4KyhOOiz8VRCWH90JQ-2" value="JFrame(&quot;Select Minor&quot;)" style="html=1;verticalAlign=bottom;endArrow=block;edgeStyle=elbowEdgeStyle;elbow=vertical;curved=0;rounded=0;" edge="1" parent="1">
          <mxGeometry relative="1" as="geometry">
            <mxPoint x="89.99857142857144" y="140" as="sourcePoint" />
            <Array as="points">
              <mxPoint x="180.07" y="140" />
            </Array>
            <mxPoint x="374.57" y="140" as="targetPoint" />
            <mxPoint as="offset" />
          </mxGeometry>
        </mxCell>
        <mxCell id="9b4KyhOOiz8VRCWH90JQ-3" value="new JFrame(&quot;Select Minor&quot;)" style="html=1;verticalAlign=bottom;endArrow=block;edgeStyle=elbowEdgeStyle;elbow=vertical;curved=0;rounded=0;dashed=1;" edge="1" parent="1">
          <mxGeometry x="0.0003" relative="1" as="geometry">
            <mxPoint x="374.57" y="164.58" as="sourcePoint" />
            <Array as="points">
              <mxPoint x="180.07" y="164.58" />
            </Array>
            <mxPoint x="89.99857142857144" y="164.58" as="targetPoint" />
            <mxPoint as="offset" />
          </mxGeometry>
        </mxCell>
      </root>
    </mxGraphModel>
  </diagram>
</mxfile>
